<?xml version="1.0" encoding="UTF-8"?>
<svg id="Layer_1" xmlns="http://www.w3.org/2000/svg" version="1.1" viewBox="0 0 300 300">
  <!-- Generator: Adobe Illustrator 29.1.0, SVG Export Plug-In . SVG Version: 2.1.0 Build 142)  -->
  <defs>
    <style>
      .st0, .st1 {
        fill: #010101;
      }

      .st2, .st3 {
        fill: #030303;
      }

      .st4, .st5 {
        fill: #ed1c24;
      }

      .st6, .st7 {
        fill: #060606;
      }

      .st8 {
        fill: #fff;
      }

      .st8, .st7, .st5, .st3, .st1 {
        display: none;
      }
    </style>
  </defs>
  <g>
    <path class="st8" d="M19,229.9c84.4,7.1,168.8,14.2,253.2,21.3,6.7-60.3,13.4-120.7,20.1-181-84.4-7.1-168.8-14.2-253.2-21.3-6.7,60.3-13.4,120.7-20.1,181Z"/>
    <path class="st1" d="M127.5,127.4c1.2-2.9,3.1-5.4,5.1-7.8,2.9-3.4,7.1-6,11.1-8.7,4.1-2.7,8.8-4.9,13.6-6.9,3.5-1.5,6.9-3,9.7-5.1,1.8-1.4,2.9-3.1,3.3-5,0-.2.2-.5-.2-.7-.7,0-.8.4-1,.7-2,3-5.3,5.1-9.3,6.7-5.4,2.3-10.8,4.6-16,7.2-6.1,3.1-11,7-14.7,11.7-2.2,2.8-4.4,5.6-7,8.2-2.1,2.1-2.1,3.8.2,5.9,3,2.7,4.3,5.7,5,9,.7,2.9,1,5.8,1.5,8.8.1.8,0,1.6-.4,2.4-1.8,3.9-4.4,7.5-7.7,10.8-1.1,1.1-1,2,.4,3.1,1.1-.3,1.6-1,2.2-1.7,3.2-3.4,5.7-7.1,8.1-10.8.6-.9.7-1.9.7-2.9-.2-3.6-.6-7.2-2-10.7,0,0,0-.2,0-.3,2.8,2.2,7.7,11.6,10.3,19.5,2.2,6.9,3.4,13.8,2.9,20.8.7,0,.6-.3.7-.6,1.8-4,1.6-8.2.9-12.3-1.8-10.2-6.6-19.8-13.5-29-.7-.9-1.4-1.9-2.1-2.8-.7-.9-1.5-1.8-2.3-2.9,4.6,1.1,8.7,2.6,12.3,4.5,16.4,8.5,27,19.8,31.1,34,.4,1.3.6,2.6.6,4,0,.4-.1.8.5,1.1.6-2.1.5-4.2.2-6.3-.9-6.2-3.9-11.9-8.2-17.3-5.8-7.4-13.4-13.7-23.3-18.5-4-2-8.4-3.5-13.5-4.5,7-3.9,14.8-5.5,23.2-6,8.4-.5,16.7.2,25,2.8-.8-.9-1.7-1.3-2.6-1.6-3.7-1.6-7.7-2.4-11.9-2.8-9.5-.9-18.8-.4-27.7,2-1.8.5-3.5,1.1-5.5,2Z"/>
    <path class="st0" d="M52,134.6c.2.5,0,.8-.3,1-2,3.2-3.1,6.6-4,10-.2.9-.2,1.8.1,2.7,1.5,4,3.2,8,5.5,11.8.4.7.9,1.5,1.8,2.1,1.6-.7,2.1-1.7,1.3-2.8-1.9-2.7-3.1-5.6-4.4-8.5-1.2-2.9-1.5-5.7,0-8.5,1.1-2,1.6-4.1,2.6-6,1.5-2.9,3.4-5.6,6.8-7.7,3-1.8,3-3.5,1.6-5.6-2.2-3.4-3.9-6.8-5.6-10.3-3-6-8.2-11-14.5-15.4-3.4-2.4-6.7-4.7-10.3-7-3.8-2.5-7-5.2-8.4-8.8,0-.2-.2-.4-.3-.5,0,0-.2,0-.5-.2-.4.7-.3,1.3-.2,2,.4,2.6,2.4,4.7,4.8,6.7,2.7,2.2,5.7,4.1,8.6,6.1,6.7,4.5,12.2,9.7,16.5,15.4,2.4,3.3,3.9,6.8,4.6,10.4-2.1-1.3-4.1-2.5-6.3-3.4-10.1-4.3-20.9-6.5-32.5-5.9-2.7.1-5.4.5-7.7,1.8,8.4-1,16.6-.4,24.8,1.5,8.2,1.9,15.6,4.8,21.6,9.7-4.1,0-7.7.6-11.2,1.4-6.3,1.4-11.9,3.7-17.2,6.5-9.5,5-17,11.3-22,19-2.1,3.3-3.6,6.8-3.8,10.6,0,.3-.1.6.3,1.2,1.5-4.8,3.8-9,7.1-12.9,3.4-4,7.4-7.5,12.1-10.7,4.6-3.1,9.8-5.8,15.4-8,5.7-2.1,11.7-3.6,18.5-4.1-.8.6-1.3,1.1-1.8,1.6-10.1,8.3-18,17.5-22.8,28-1.3,2.9-2.2,5.8-2.7,8.8-.3,1.8-.2,3.7.6,5.5,1.9-10.4,6.7-19.9,13.6-28.9,2.3-3,5-5.9,8.2-8.6Z"/>
    <path class="st1" d="M129.7,135.6c6.4,7.3,10.5,14.9,14,22.6,3,6.6,3.9,13.3,2.9,20.1,0,0,0,0,0,.1-1.4,3.2-1.1,6.5-1.3,9.8,0,1.4-.7,2.8-1.1,4.2,1-.2,1.3-.9,1.7-1.3,2-2.3,3.1-4.9,3.6-7.7.8-4.3,2-8.5,3.9-12.6.9-1.9,1.9-3.8,3.7-5.4.4-.4.9-.8,1.5-1.1,1.3-.6,2.3-.7,3.6,0,1.6.8,2.8,1.9,3.7,3.2.7.9,1.3,1.9,2,2.8,0-1.7-.6-3.2-1.3-4.8-1.6-3.4-4.2-6.5-6.6-9.7-5.9-7.6-14.3-13.6-24.4-18.3-1.7-.8-3.6-1.5-6-2Z"/>
    <path class="st0" d="M27.2,182.6c0-1.3-.2-2.5-.1-3.7,0-1.6.4-3.2.9-4.8.3-1,.3-2,.2-2.9-.4-6.3,1.3-12.3,4.6-18,5.1-8.6,12-16.3,20.4-23.3.2-.1.3-.3.7-.6-2.3,0-4.2.5-6,1-11.7,3.1-21.6,8-29.4,15-3.2,2.9-6.4,5.7-8.5,9.1-.5.8-.9,1.7-1.6,2.9,1.2-.5,1.6-1.2,2.1-1.7,1.2-1.2,2.5-2.3,4.3-3,2.4-1,4-.7,5.5,1.1,1.7,2,2.3,4.2,2.8,6.4.9,4.3,1.1,8.7,1,13,0,3.1.5,6.1,2.3,8.9.2.2.2.6.9.7Z"/>
    <path class="st1" d="M171,96.3c-1,.7-1.3,1.6-2,2.4-1.2,1.5-2.8,2.8-4.8,3.8-2.8,1.4-5.7,2.8-8.7,3.9-4,1.5-7.6,3.5-11,5.7-5.6,3.7-10.5,7.7-14.3,12.4-.2.3-.7.5-.5.8,14.4-4.7,29-5.6,44,0,.2-.3,0-.6-.2-1-.8-1.6-1.9-3.2-3.3-4.6-1.1-1.1-2.2-2.3-3.1-3.5-1-1.2-1.1-2.5-1.1-3.8.2-3.8,1.9-7.3,3.6-10.8.5-.9.9-1.9,1.2-2.8.3-.8.5-1.7.2-2.6Z"/>
    <path class="st0" d="M56.4,119.3c-1-2-2-3.9-3.3-5.8-3.4-4.9-7.8-9.4-12.8-13.6-2.8-2.3-6.3-4.1-9.3-6.2-2.1-1.5-4.4-3-6-4.9-1.1-1.3-1.8-2.7-2.3-4.1-.1-.3,0-.7-.7-.9-.6.9-.5,1.9-.3,2.8.6,2.9,1.2,5.7,1.8,8.6.4,2,0,4.1-.2,6.1-.1,1.1-.7,2-1.7,2.8-1.3,1.1-2.6,2.1-4,3-2,1.4-3.7,2.9-4.9,4.9,16-3,30.1.2,43.5,7.3Z"/>
    <path class="st1" d="M171,127.5c-10.1-2.2-20-2.2-29.8-.4-4.1.7-7.9,1.7-11.4,3.5.6.5,1.4.6,2.1.8,9,2.4,16.5,6.5,22.9,11.7,8.2,6.6,13.9,14.2,17.1,22.7,0,.2,0,.5.4.6,1.1-1.4,1.3-3.1.8-5.5-.6-2.7-1.9-5.3-3.6-7.7-2.6-3.8-4.6-7.8-6.9-11.8-.6-1.1-1-2.2-1.3-3.3-1.3-4.9,1.9-8.1,7.6-9.8.6-.2,1.3-.2,2-.6Z"/>
    <path class="st0" d="M55.1,124.3c-5.4-3.7-11.7-6-18.6-7.7-6.9-1.7-13.9-2.5-21.1-2.1.2.5.9.6,1.4.9,5.8,2.7,7.8,6.6,5.5,11.1-1,1.9-2.4,3.6-3.9,5.3-2.8,3.1-5.4,6.3-8.4,9.2-1.8,1.7-3.1,3.6-4,5.7-.9,1.9-1.3,3.7-.7,5.7.7,0,.6-.4.8-.6,4.6-7,10.9-13,19.1-17.9,8.2-4.9,17.5-8.3,28.4-9.1.4,0,.9,0,1.5-.4Z"/>
    <path class="st1" d="M133.3,147.6c-.3.9,0,1.7.1,2.4.7,3.1-.3,5.8-2.4,8.4-1.8,2.3-3.2,4.7-5.2,6.8-.5.5-.4,1-.2,1.5,2.5,5,5.1,9.9,9.8,14.1,3.1,2.8,5.5,5.8,5.7,9.5,0,2.2-.2,4.3-.8,6.5-.4,1.4-.9,2.7-1.3,4.1,1.6-1.5,2.5-3.2,3.1-5,1-3.1,1.8-6.3,2-9.5,0-1.5-.1-2.9-1.5-4.2-.5-.4-.6-.9-.5-1.5,1.1-7.1-1.2-14-3.2-20.8-1.1-3.7-2.8-7.3-4.4-10.8-.2-.5-.3-1-1-1.4Z"/>
    <path class="st0" d="M47.6,140.5c-.5.6-1.1,1.2-1.6,1.9-4.9,6.6-8.9,13.5-11.9,20.6-1.1,2.6-1.6,5.3-1.9,8,0,.8-.4,1.5-1.3,2.1-1.9,1.2-2.1,3-2.2,4.7-.3,3.2-.4,6.4.2,9.6.3,1.5.7,3,1.8,4.3-.2-2-.6-4.1-.4-6.1.1-1.8.3-3.7,1-5.5.9-2.3,2.5-4.3,4.9-5.9,4.2-2.8,8.4-5.6,11.3-9.3,1.2-1.5,2.4-3,3.7-4.4.5-.6.5-1.2.1-1.9-1.7-3.1-3-6.3-4.4-9.5-.8-2-.5-3.9.2-5.9.3-.9.9-1.8.5-2.9Z"/>
    <path class="st1" d="M120.7,168.9c-1.4-.5-.5-1.6-1.3-2.3-.7,0-1.1.2-1.7.3-1.8.4-2.4.3-3.4-1-.6-.7-1.1-1.5-1.4-2.4-1.4-3.5-2.8-7-4-10.5-.7-2-2.1-3.8-2.5-5.9-.2-.8-1-1.4-2.2-1.4-1.2,0-1.9.4-2.3,1.2-.3.5-.3,1-1,1.3-.7-.5-.4-1-.4-1.6.1-1.8-.8-3.5-2.4-4.9-1-.9-1.7-1.1-3.1-1.3.1.7.9,1.1,1.4,1.5,1.6,1.5,2,3.1,1.4,4.8-.1.3-.3.6-.6.9-.5.6-1.1,1.1-2.1,1-1-.1-1.1-.9-1.4-1.5-.4-1-.3-2,0-3.1-2,.7-2.4,2-2.3,3.5,0,.6.3,1.1.5,1.7.4,1.1.5,2.1.3,3.2-.3,1.1-.1,2.3.4,3.4,1.1,2.3,1.3,4.6,1,6.9-.4,2.9-.3,5.9-1.6,8.8.8.1.9-.2,1.1-.5,1.7-1.7,2.4-3.7,2.9-5.8.3-1.4.7-2.9.8-4.3.1-1.1.8-1.9,2.2-2.3,1.6-.5,2.7-1.4,3.6-2.5.4-.4.5-1,1.5-.9.9,0,1.2.7,1.4,1.3.9,2,1.8,4,2.8,6,1.1,2.5,2.3,5,3.7,7.4.2.4.5.8.8,1.2,1.1,1.3,2.5,1.6,4.3.9,1.9-.7,2.6-2.1,3.9-3.4Z"/>
    <path class="st0" d="M87.4,143.8c.5,1.3.1,2.4-.7,3.5-.8,1.1-1.8,1-2.8,0-1.3-1.4-1-3.9.7-5.3.8-.7,1.8-1.3,2.8-2-1-.3-1.7,0-2.3.2-2.5,1-4.1,2.5-4.6,4.6-.2.6,0,1.3-.7,1.8-.7-.4-.6-1-.7-1.4-.3-.8-.7-1.4-2-1.6-1.1-.2-2.1.2-2.6,1.1-2,3.4-4.7,6.4-6.5,9.8-1,1.9-2.5,3.7-3.7,5.5-.4.6-1,1.2-1.7,1.7-1.3,1-1.8,1-3.4.3-.5-.2-.9-.6-1.6-.6-1,.5-.3,1.7-1.8,2,1,1.5,1.4,3,3.2,4,1.6.9,3,.9,4.3-.2.8-.7,1.5-1.4,2.1-2.2,2.7-3.5,5.3-6.9,7.9-10.4,0-.1.2-.3.3-.4.4-.5.7-1.2,1.8-1.2,1.2,0,1.1.8,1.4,1.4.6,1,1.4,2,2.6,2.7,1.4.8,1.9,1.7,1.8,3-.1,2.4-.4,4.9.2,7.4.3,1.3.7,2.5,1.8,3.7.5-.4.3-.7.3-1.1-.3-3.9.3-7.6,1.2-11.4.3-1.2,1.1-2.2,1.8-3.2.6-.9,1.1-1.8,1-2.8,0-1.5.6-2.9,1.4-4.2.8-1.4.9-2.8-.3-4.2-.2-.2-.4-.4-1-.5Z"/>
    <path class="st1" d="M109.5,197c1.2-.5,2.1-1.2,3-1.9,2.1-1.7,4.2-3.4,6.2-5.2,2.3-2,4.9-3.7,7.6-5.3,2.2-1.3,4.7-2.1,7.6-2.3.3,0,.6,0,1-.1.1,0,.2,0,.5-.2-5.3-4.4-8.4-9.5-10.6-15.1-1.2.5-1.8,1.1-2.4,1.7-1.1,1-2.2,2.1-3.2,3.1-.2.1-.3.3-.5.4-3.5,1.2-3.4,3.7-3.7,6-.3,2-.8,3.9-1.8,5.7-1,2-1.4,4-1.3,6.1.1,2.2-.9,4.1-1.8,6.1-.1.3-.6.5-.4,1Z"/>
    <path class="st0" d="M52.1,160.5c-3.6,5.2-7.7,9.7-13.8,13.1.4.4.8.5,1.1.6,3.4.8,5.9,2.4,8,4.4,2.6,2.4,4.9,5,6.9,7.6,1.4,1.9,2.9,3.7,4.6,5.4.4.4.9.8,1.6,1.1-.2-.6-.5-1.3-.6-1.9-.4-1.9-.7-3.7-.1-5.6.6-2.1.6-4.2,0-6.3-.9-2.8-.3-5.6-.3-8.3,0-1,0-1.9-1.3-2.7-1-.6-1.5-1.6-2.1-2.4-1.1-1.6-2-3.2-3.8-5Z"/>
    <path class="st1" d="M105.9,161.3c0,4.6-.4,8.8-1.8,13-.9,2.9-2.4,5.5-5.3,7.7,6.7,4.8,8.7,10.4,6.5,16.9,1.2-.3,1.7-.8,2.2-1.3,2.1-2.3,3.3-4.8,3.3-7.7,0-2.6.5-5.2,1.8-7.6,1.2-2.3,1.6-4.8,2.1-7.3.1-.8,0-1.3-1.2-1.7-1.5-.5-2.4-1.5-3-2.6-1.4-2.9-3-5.7-3.9-8.7,0-.2-.3-.3-.5-.7Z"/>
    <path class="st0" d="M64.1,195.3c-.8-6.7,2.4-11.8,10-15.4-3.6-4.2-3.8-8.7-3.6-13.3.1-2.7.4-5.3,1.3-8.2-.4.3-.7.4-.7.6-1.5,2.7-3.7,5.2-5.7,7.8-.9,1.1-2,2-3.8,2.2-1,.2-1.3.6-1.4,1.3-.3,3,0,5.9.6,8.9.6,2.3.2,4.5-.3,6.8-.5,2.8,0,5.6,1.9,8.2.3.4.6.9,1.6,1.2Z"/>
    <path class="st1" d="M69.4,149.1c-2.3.4-4.4.5-6.4-.1-1.6-.5-2.9-1.1-4-2.1-1.9-1.6-3.3-3.4-4.5-5.3-.6,0-.6.4-.8.7-1.4,2.4-1.7,4.9-.7,7.6,1.2,3.2,2.6,6.2,4.7,9.1.4.6.9,1.2,1.6,1.7,1,.7,1.7.7,2.7,0,.3-.2.5-.4.7-.7,2.8-3.4,4.5-7.1,6.7-10.8Z"/>
    <path class="st1" d="M110.2,152.4c1.3,4.1,2.1,7.9,4.1,11.6,1.1,2.1,2.4,2.4,4.5.7,2.8-2.2,4.8-4.8,6.6-7.5.4-.5.6-1.1,1-1.7,1.8-2.5,1.5-5.1.6-7.7,0,0-.2-.1-.4-.3-1.2,1.2-2.6,2.4-4.1,3.5-1.4,1-2.9,1.8-4.9,2.2-2.5.5-4.8.3-7.5-.8Z"/>
    <path class="st1" d="M104.1,156.8c-.6,0-.8.3-1,.6-1,1-2.2,1.8-3.8,2.4-1.4.5-1.6,1.4-1.8,2.3-.3,1.4-.5,2.8-.7,4.2-.4,2.3-1.2,4.5-3.6,6.3,3.3,2.5,3.7,5.6,4.1,8.9,2-1.2,3.1-2.5,3.9-3.9,1.5-2.7,2.4-5.6,2.9-8.6.6-3.6,1.4-7.2.6-10.9,0-.5,0-.9-.5-1.3Z"/>
    <path class="st0" d="M75.8,179.7c1.1-3.2,2.2-6.2,5.9-8-2.9-3.5-2-7.1-1.9-10.6,0-1.4-.2-2.6-2-3.5-.9-.5-1.5-1.2-2.1-1.9-.3-.4-.5-1-1.3-1.3-1.1,1.2-1.4,2.6-1.6,4-1,5.6-1.6,11.2,0,16.9.4,1.5,1.3,3,3,4.5Z"/>
    <path class="st3" d="M120.4,133.1c-1.3-1.6-.7-3-.1-4.5-4.5.7-9,6.2-7.1,8.7,1.5-2.2,3.5-3.8,7.2-4.2Z"/>
    <path class="st2" d="M65,123.9c0,1.6.4,3.1-1.3,4.4,3.4,1,5.2,2.9,6.1,5.4.7-.3.9-.6.9-1,.1-.8.2-1.6-.1-2.4-.9-2.5-2.9-4.6-5.6-6.4Z"/>
    <path class="st7" d="M114.4,141.6c-3.5-1.5-10.5,0-11.9,3.3,1.4.2,3,.2,4.2,1.2,1.6-2.4,4.1-3.9,7.7-4.5Z"/>
    <path class="st6" d="M78.7,143.1c-1-3.6-6.5-6.3-10.9-5.4,3.2,1.2,5.5,2.9,6.3,5.6,1.5-.4,2.9-.7,4.5-.2Z"/>
  </g>
  <g>
    <path class="st8" d="M281,229.9c-84.4,7.1-168.8,14.2-253.2,21.3-6.7-60.3-13.4-120.7-20.1-181,84.4-7.1,168.8-14.2,253.2-21.3,6.7,60.3,13.4,120.7,20.1,181Z"/>
    <path class="st1" d="M172.5,127.4c-1.2-2.9-3.1-5.4-5.1-7.8-2.9-3.4-7.1-6-11.1-8.7-4.1-2.7-8.8-4.9-13.6-6.9-3.5-1.5-6.9-3-9.7-5.1-1.8-1.4-2.9-3.1-3.3-5,0-.2-.2-.5.2-.7.7,0,.8.4,1,.7,2,3,5.3,5.1,9.3,6.7,5.4,2.3,10.8,4.6,16,7.2,6.1,3.1,11,7,14.7,11.7,2.2,2.8,4.4,5.6,7,8.2,2.1,2.1,2.1,3.8-.2,5.9-3,2.7-4.3,5.7-5,9-.7,2.9-1,5.8-1.5,8.8-.1.8,0,1.6.4,2.4,1.8,3.9,4.4,7.5,7.7,10.8,1.1,1.1,1,2-.4,3.1-1.1-.3-1.6-1-2.2-1.7-3.2-3.4-5.7-7.1-8.1-10.8-.6-.9-.7-1.9-.7-2.9.2-3.6.6-7.2,2-10.7,0,0,0-.2,0-.3-2.8,2.2-7.7,11.6-10.3,19.5-2.2,6.9-3.4,13.8-2.9,20.8-.7,0-.6-.3-.7-.6-1.8-4-1.6-8.2-.9-12.3,1.8-10.2,6.6-19.8,13.5-29,.7-.9,1.4-1.9,2.1-2.8.7-.9,1.5-1.8,2.3-2.9-4.6,1.1-8.7,2.6-12.3,4.5-16.4,8.5-27,19.8-31.1,34-.4,1.3-.6,2.6-.6,4,0,.4.1.8-.5,1.1-.6-2.1-.5-4.2-.2-6.3.9-6.2,3.9-11.9,8.2-17.3,5.8-7.4,13.4-13.7,23.3-18.5,4-2,8.4-3.5,13.5-4.5-7-3.9-14.8-5.5-23.2-6-8.4-.5-16.7.2-25,2.8.8-.9,1.7-1.3,2.6-1.6,3.7-1.6,7.7-2.4,11.9-2.8,9.5-.9,18.8-.4,27.7,2,1.8.5,3.5,1.1,5.5,2Z"/>
    <path class="st0" d="M248,134.6c-.2.5,0,.8.3,1,2,3.2,3.1,6.6,4,10,.2.9.2,1.8-.1,2.7-1.5,4-3.2,8-5.5,11.8-.4.7-.9,1.5-1.8,2.1-1.6-.7-2.1-1.7-1.3-2.8,1.9-2.7,3.1-5.6,4.4-8.5,1.2-2.9,1.5-5.7,0-8.5-1.1-2-1.6-4.1-2.6-6-1.5-2.9-3.4-5.6-6.8-7.7-3-1.8-3-3.5-1.6-5.6,2.2-3.4,3.9-6.8,5.6-10.3,3-6,8.2-11,14.5-15.4,3.4-2.4,6.7-4.7,10.3-7,3.8-2.5,7-5.2,8.4-8.8,0-.2.2-.4.3-.5,0,0,.2,0,.5-.2.4.7.3,1.3.2,2-.4,2.6-2.4,4.7-4.8,6.7-2.7,2.2-5.7,4.1-8.6,6.1-6.7,4.5-12.2,9.7-16.5,15.4-2.4,3.3-3.9,6.8-4.6,10.4,2.1-1.3,4.1-2.5,6.3-3.4,10.1-4.3,20.9-6.5,32.5-5.9,2.7.1,5.4.5,7.7,1.8-8.4-1-16.6-.4-24.8,1.5-8.2,1.9-15.6,4.8-21.6,9.7,4.1,0,7.7.6,11.2,1.4,6.3,1.4,11.9,3.7,17.2,6.5,9.5,5,17,11.3,22,19,2.1,3.3,3.6,6.8,3.8,10.6,0,.3.1.6-.3,1.2-1.5-4.8-3.8-9-7.1-12.9-3.4-4-7.4-7.5-12.1-10.7-4.6-3.1-9.8-5.8-15.4-8-5.7-2.1-11.7-3.6-18.5-4.1.8.6,1.3,1.1,1.8,1.6,10.1,8.3,18,17.5,22.8,28,1.3,2.9,2.2,5.8,2.7,8.8.3,1.8.2,3.7-.6,5.5-1.9-10.4-6.7-19.9-13.6-28.9-2.3-3-5-5.9-8.2-8.6Z"/>
    <path class="st1" d="M170.3,135.6c-6.4,7.3-10.5,14.9-14,22.6-3,6.6-3.9,13.3-2.9,20.1,0,0,0,0,0,.1,1.4,3.2,1.1,6.5,1.3,9.8,0,1.4.7,2.8,1.1,4.2-1-.2-1.3-.9-1.7-1.3-2-2.3-3.1-4.9-3.6-7.7-.8-4.3-2-8.5-3.9-12.6-.9-1.9-1.9-3.8-3.7-5.4-.4-.4-.9-.8-1.5-1.1-1.3-.6-2.3-.7-3.6,0-1.6.8-2.8,1.9-3.7,3.2-.7.9-1.3,1.9-2,2.8,0-1.7.6-3.2,1.3-4.8,1.6-3.4,4.2-6.5,6.6-9.7,5.9-7.6,14.3-13.6,24.4-18.3,1.7-.8,3.6-1.5,6-2Z"/>
    <path class="st0" d="M272.8,182.6c0-1.3.2-2.5.1-3.7,0-1.6-.4-3.2-.9-4.8-.3-1-.3-2-.2-2.9.4-6.3-1.3-12.3-4.6-18-5.1-8.6-12-16.3-20.4-23.3-.2-.1-.3-.3-.7-.6,2.3,0,4.2.5,6,1,11.7,3.1,21.6,8,29.4,15,3.2,2.9,6.4,5.7,8.5,9.1.5.8.9,1.7,1.6,2.9-1.2-.5-1.6-1.2-2.1-1.7-1.2-1.2-2.5-2.3-4.3-3-2.4-1-4-.7-5.5,1.1-1.7,2-2.3,4.2-2.8,6.4-.9,4.3-1.1,8.7-1,13,0,3.1-.5,6.1-2.3,8.9-.2.2-.2.6-.9.7Z"/>
    <path class="st1" d="M129,96.3c1,.7,1.3,1.6,2,2.4,1.2,1.5,2.8,2.8,4.8,3.8,2.8,1.4,5.7,2.8,8.7,3.9,4,1.5,7.6,3.5,11,5.7,5.6,3.7,10.5,7.7,14.3,12.4.2.3.7.5.5.8-14.4-4.7-29-5.6-44,0-.2-.3,0-.6.2-1,.8-1.6,1.9-3.2,3.3-4.6,1.1-1.1,2.2-2.3,3.1-3.5,1-1.2,1.1-2.5,1.1-3.8-.2-3.8-1.9-7.3-3.6-10.8-.5-.9-.9-1.9-1.2-2.8-.3-.8-.5-1.7-.2-2.6Z"/>
    <path class="st0" d="M243.6,119.3c1-2,2-3.9,3.3-5.8,3.4-4.9,7.8-9.4,12.8-13.6,2.8-2.3,6.3-4.1,9.3-6.2,2.1-1.5,4.4-3,6-4.9,1.1-1.3,1.8-2.7,2.3-4.1.1-.3,0-.7.7-.9.6.9.5,1.9.3,2.8-.6,2.9-1.2,5.7-1.8,8.6-.4,2,0,4.1.2,6.1.1,1.1.7,2,1.7,2.8,1.3,1.1,2.6,2.1,4,3,2,1.4,3.7,2.9,4.9,4.9-16-3-30.1.2-43.5,7.3Z"/>
    <path class="st1" d="M129,127.5c10.1-2.2,20-2.2,29.8-.4,4.1.7,7.9,1.7,11.4,3.5-.6.5-1.4.6-2.1.8-9,2.4-16.5,6.5-22.9,11.7-8.2,6.6-13.9,14.2-17.1,22.7,0,.2,0,.5-.4.6-1.1-1.4-1.3-3.1-.8-5.5.6-2.7,1.9-5.3,3.6-7.7,2.6-3.8,4.6-7.8,6.9-11.8.6-1.1,1-2.2,1.3-3.3,1.3-4.9-1.9-8.1-7.6-9.8-.6-.2-1.3-.2-2-.6Z"/>
    <path class="st0" d="M244.9,124.3c5.4-3.7,11.7-6,18.6-7.7,6.9-1.7,13.9-2.5,21.1-2.1-.2.5-.9.6-1.4.9-5.8,2.7-7.8,6.6-5.5,11.1,1,1.9,2.4,3.6,3.9,5.3,2.8,3.1,5.4,6.3,8.4,9.2,1.8,1.7,3.1,3.6,4,5.7.9,1.9,1.3,3.7.7,5.7-.7,0-.6-.4-.8-.6-4.6-7-10.9-13-19.1-17.9-8.2-4.9-17.5-8.3-28.4-9.1-.4,0-.9,0-1.5-.4Z"/>
    <path class="st1" d="M166.7,147.6c.3.9,0,1.7-.1,2.4-.7,3.1.3,5.8,2.4,8.4,1.8,2.3,3.2,4.7,5.2,6.8.5.5.4,1,.2,1.5-2.5,5-5.1,9.9-9.8,14.1-3.1,2.8-5.5,5.8-5.7,9.5,0,2.2.2,4.3.8,6.5.4,1.4.9,2.7,1.3,4.1-1.6-1.5-2.5-3.2-3.1-5-1-3.1-1.8-6.3-2-9.5,0-1.5.1-2.9,1.5-4.2.5-.4.6-.9.5-1.5-1.1-7.1,1.2-14,3.2-20.8,1.1-3.7,2.8-7.3,4.4-10.8.2-.5.3-1,1-1.4Z"/>
    <path class="st0" d="M252.4,140.5c.5.6,1.1,1.2,1.6,1.9,4.9,6.6,8.9,13.5,11.9,20.6,1.1,2.6,1.6,5.3,1.9,8,0,.8.4,1.5,1.3,2.1,1.9,1.2,2.1,3,2.2,4.7.3,3.2.4,6.4-.2,9.6-.3,1.5-.7,3-1.8,4.3.2-2,.6-4.1.4-6.1-.1-1.8-.3-3.7-1-5.5-.9-2.3-2.5-4.3-4.9-5.9-4.2-2.8-8.4-5.6-11.3-9.3-1.2-1.5-2.4-3-3.7-4.4-.5-.6-.5-1.2-.1-1.9,1.7-3.1,3-6.3,4.4-9.5.8-2,.5-3.9-.2-5.9-.3-.9-.9-1.8-.5-2.9Z"/>
    <path class="st1" d="M179.3,168.9c1.4-.5.5-1.6,1.3-2.3.7,0,1.1.2,1.7.3,1.8.4,2.4.3,3.4-1,.6-.7,1.1-1.5,1.4-2.4,1.4-3.5,2.8-7,4-10.5.7-2,2.1-3.8,2.5-5.9.2-.8,1-1.4,2.2-1.4,1.2,0,1.9.4,2.3,1.2.3.5.3,1,1,1.3.7-.5.4-1,.4-1.6-.1-1.8.8-3.5,2.4-4.9,1-.9,1.7-1.1,3.1-1.3-.1.7-.9,1.1-1.4,1.5-1.6,1.5-2,3.1-1.4,4.8.1.3.3.6.6.9.5.6,1.1,1.1,2.1,1,1-.1,1.1-.9,1.4-1.5.4-1,.3-2,0-3.1,2,.7,2.4,2,2.3,3.5,0,.6-.3,1.1-.5,1.7-.4,1.1-.5,2.1-.3,3.2.3,1.1.1,2.3-.4,3.4-1.1,2.3-1.3,4.6-1,6.9.4,2.9.3,5.9,1.6,8.8-.8.1-.9-.2-1.1-.5-1.7-1.7-2.4-3.7-2.9-5.8-.3-1.4-.7-2.9-.8-4.3-.1-1.1-.8-1.9-2.2-2.3-1.6-.5-2.7-1.4-3.6-2.5-.4-.4-.5-1-1.5-.9-.9,0-1.2.7-1.4,1.3-.9,2-1.8,4-2.8,6-1.1,2.5-2.3,5-3.7,7.4-.2.4-.5.8-.8,1.2-1.1,1.3-2.5,1.6-4.3.9-1.9-.7-2.6-2.1-3.9-3.4Z"/>
    <path class="st0" d="M212.6,143.8c-.5,1.3-.1,2.4.7,3.5.8,1.1,1.8,1,2.8,0,1.3-1.4,1-3.9-.7-5.3-.8-.7-1.8-1.3-2.8-2,1-.3,1.7,0,2.3.2,2.5,1,4.1,2.5,4.6,4.6.2.6,0,1.3.7,1.8.7-.4.6-1,.7-1.4.3-.8.7-1.4,2-1.6,1.1-.2,2.1.2,2.6,1.1,2,3.4,4.7,6.4,6.5,9.8,1,1.9,2.5,3.7,3.7,5.5.4.6,1,1.2,1.7,1.7,1.3,1,1.8,1,3.4.3.5-.2.9-.6,1.6-.6,1,.5.3,1.7,1.8,2-1,1.5-1.4,3-3.2,4-1.6.9-3,.9-4.3-.2-.8-.7-1.5-1.4-2.1-2.2-2.7-3.5-5.3-6.9-7.9-10.4,0-.1-.2-.3-.3-.4-.4-.5-.7-1.2-1.8-1.2-1.2,0-1.1.8-1.4,1.4-.6,1-1.4,2-2.6,2.7-1.4.8-1.9,1.7-1.8,3,.1,2.4.4,4.9-.2,7.4-.3,1.3-.7,2.5-1.8,3.7-.5-.4-.3-.7-.3-1.1.3-3.9-.3-7.6-1.2-11.4-.3-1.2-1.1-2.2-1.8-3.2-.6-.9-1.1-1.8-1-2.8,0-1.5-.6-2.9-1.4-4.2-.8-1.4-.9-2.8.3-4.2.2-.2.4-.4,1-.5Z"/>
    <path class="st1" d="M190.5,197c-1.2-.5-2.1-1.2-3-1.9-2.1-1.7-4.2-3.4-6.2-5.2-2.3-2-4.9-3.7-7.6-5.3-2.2-1.3-4.7-2.1-7.6-2.3-.3,0-.6,0-1-.1-.1,0-.2,0-.5-.2,5.3-4.4,8.4-9.5,10.6-15.1,1.2.5,1.8,1.1,2.4,1.7,1.1,1,2.2,2.1,3.2,3.1.2.1.3.3.5.4,3.5,1.2,3.4,3.7,3.7,6,.3,2,.8,3.9,1.8,5.7,1,2,1.4,4,1.3,6.1-.1,2.2.9,4.1,1.8,6.1.1.3.6.5.4,1Z"/>
    <path class="st0" d="M247.9,160.5c3.6,5.2,7.7,9.7,13.8,13.1-.4.4-.8.5-1.1.6-3.4.8-5.9,2.4-8,4.4-2.6,2.4-4.9,5-6.9,7.6-1.4,1.9-2.9,3.7-4.6,5.4-.4.4-.9.8-1.6,1.1.2-.6.5-1.3.6-1.9.4-1.9.7-3.7.1-5.6-.6-2.1-.6-4.2,0-6.3.9-2.8.3-5.6.3-8.3,0-1,0-1.9,1.3-2.7,1-.6,1.5-1.6,2.1-2.4,1.1-1.6,2-3.2,3.8-5Z"/>
    <path class="st1" d="M194.1,161.3c0,4.6.4,8.8,1.8,13,.9,2.9,2.4,5.5,5.3,7.7-6.7,4.8-8.7,10.4-6.5,16.9-1.2-.3-1.7-.8-2.2-1.3-2.1-2.3-3.3-4.8-3.3-7.7,0-2.6-.5-5.2-1.8-7.6-1.2-2.3-1.6-4.8-2.1-7.3-.1-.8,0-1.3,1.2-1.7,1.5-.5,2.4-1.5,3-2.6,1.4-2.9,3-5.7,3.9-8.7,0-.2.3-.3.5-.7Z"/>
    <path class="st0" d="M235.9,195.3c.8-6.7-2.4-11.8-10-15.4,3.6-4.2,3.8-8.7,3.6-13.3-.1-2.7-.4-5.3-1.3-8.2.4.3.7.4.7.6,1.5,2.7,3.7,5.2,5.7,7.8.9,1.1,2,2,3.8,2.2,1,.2,1.3.6,1.4,1.3.3,3,0,5.9-.6,8.9-.6,2.3-.2,4.5.3,6.8.5,2.8,0,5.6-1.9,8.2-.3.4-.6.9-1.6,1.2Z"/>
    <path class="st1" d="M230.6,149.1c2.3.4,4.4.5,6.4-.1,1.6-.5,2.9-1.1,4-2.1,1.9-1.6,3.3-3.4,4.5-5.3.6,0,.6.4.8.7,1.4,2.4,1.7,4.9.7,7.6-1.2,3.2-2.6,6.2-4.7,9.1-.4.6-.9,1.2-1.6,1.7-1,.7-1.7.7-2.7,0-.3-.2-.5-.4-.7-.7-2.8-3.4-4.5-7.1-6.7-10.8Z"/>
    <path class="st1" d="M189.8,152.4c-1.3,4.1-2.1,7.9-4.1,11.6-1.1,2.1-2.4,2.4-4.5.7-2.8-2.2-4.8-4.8-6.6-7.5-.4-.5-.6-1.1-1-1.7-1.8-2.5-1.5-5.1-.6-7.7,0,0,.2-.1.4-.3,1.2,1.2,2.6,2.4,4.1,3.5,1.4,1,2.9,1.8,4.9,2.2,2.5.5,4.8.3,7.5-.8Z"/>
    <path class="st1" d="M195.9,156.8c.6,0,.8.3,1,.6,1,1,2.2,1.8,3.8,2.4,1.4.5,1.6,1.4,1.8,2.3.3,1.4.5,2.8.7,4.2.4,2.3,1.2,4.5,3.6,6.3-3.3,2.5-3.7,5.6-4.1,8.9-2-1.2-3.1-2.5-3.9-3.9-1.5-2.7-2.4-5.6-2.9-8.6-.6-3.6-1.4-7.2-.6-10.9,0-.5,0-.9.5-1.3Z"/>
    <path class="st0" d="M224.2,179.7c-1.1-3.2-2.2-6.2-5.9-8,2.9-3.5,2-7.1,1.9-10.6,0-1.4.2-2.6,2-3.5.9-.5,1.5-1.2,2.1-1.9.3-.4.5-1,1.3-1.3,1.1,1.2,1.4,2.6,1.6,4,1,5.6,1.6,11.2,0,16.9-.4,1.5-1.3,3-3,4.5Z"/>
    <path class="st3" d="M179.6,133.1c1.3-1.6.7-3,.1-4.5,4.5.7,9,6.2,7.1,8.7-1.5-2.2-3.5-3.8-7.2-4.2Z"/>
    <path class="st2" d="M235,123.9c0,1.6-.4,3.1,1.3,4.4-3.4,1-5.2,2.9-6.1,5.4-.7-.3-.9-.6-.9-1-.1-.8-.2-1.6.1-2.4.9-2.5,2.9-4.6,5.6-6.4Z"/>
    <path class="st7" d="M185.6,141.6c3.5-1.5,10.5,0,11.9,3.3-1.4.2-3,.2-4.2,1.2-1.6-2.4-4.1-3.9-7.7-4.5Z"/>
    <path class="st6" d="M221.3,143.1c1-3.6,6.5-6.3,10.9-5.4-3.2,1.2-5.5,2.9-6.3,5.6-1.5-.4-2.9-.7-4.5-.2Z"/>
  </g>
  <g>
    <path class="st4" d="M181.3,116.1c-11.4,5.4-17.9,14.1-19.4,25.7,2.5-.8,5.9-1.5,10.1-1.5s7.5.6,11.2,1.8c2.1.7,4.1,1,6,1,3.1,0,5.8-1,7.9-2.9,1.1-1,2.5-1.6,4.1-1.7.3-6.3-.6-17.2-9-26.1-3.2.8-7,1.9-10.7,3.7Z"/>
    <path class="st4" d="M203.9,141.8c-1.3-1.3-3.7-1.3-5,0-1.1,1-2.6,2.1-4.6,2.8,0,.1.2.3.2.5.3.7.8,1.8,1.1,3.1.3,1.3.6,2.9.6,4.5,0,.8-.1,1.7-.3,2.6,0,.2,0,.4-.1.6,0,0,0,0,0,.2.1.2.2.6.3,1,.1.4.2.9.2,1.5,0,.5-.1,1.1-.4,1.6v.2c-.1,0-.2.1-.2.2,0,.1-.1.2-.2.4-.1.2-.2.5-.3.7,0,.2,0,.5,0,.7,0,.2,0,.4,0,.6.1.4.3.7.4.9.1.2.3.3.3.3,0,0-.1,0-.3-.3-.2-.2-.4-.5-.5-.9,0-.2-.1-.4-.2-.7,0-.2,0-.5,0-.8,0-.3.1-.5.2-.8,0-.1.1-.3.2-.4,0,0,0-.1,0-.2v-.2c.2-.5.3-1,.3-1.5,0-.5-.1-.9-.3-1.3,0,0,0-.1,0-.2,0,.3-.2.6-.3.8,0,.2-.2.4-.3.6-.1.2-.2.4-.3.6-.2.4-.4.8-.6,1.2-.4.8-.7,1.6-.8,2.4-.2.8-.3,1.6-.2,2.3,0,0,0,.2,0,.3,0,0,0,.2,0,.3,0,.2,0,.4,0,.5,0,.2,0,.3,0,.5,0,0,0,.2,0,.2,0,0,0,0,0,.1,0,0,0,0,0,.1.2.6.4,1.2.7,1.7.2.5.5.9.8,1.2.2.3.4.6.6.7.1.2.2.2.2.2,0,0,0,0-.2-.2-.2-.2-.4-.4-.6-.7-.3-.3-.5-.7-.8-1.2-.3-.5-.5-1-.8-1.7,0,0,0,0,0-.1,0,0,0,0,0-.1,0,0,0-.2,0-.2,0-.2,0-.3-.1-.5,0-.2,0-.4,0-.5,0,0,0-.2,0-.3,0,0,0-.2,0-.3,0-.8,0-1.6.1-2.4.1-.8.4-1.7.7-2.5,0-.1,0-.2.1-.3-.2,0-.3.2-.5.3-.4.2-.8.5-1.2.9-.4.4-.7.8-.9,1.3v.2c-.1,0-.1.1-.1.2,0,.1,0,.3-.1.4-.1.3-.2.5-.4.7-.2.2-.3.4-.5.6-.2.2-.4.3-.6.4-.4.2-.8.4-1,.4-.3,0-.4,0-.4,0,0,0,.2,0,.4,0,.3,0,.6-.2,1-.5.2-.1.4-.3.6-.4.2-.2.3-.4.5-.6.1-.2.3-.5.3-.7,0-.1,0-.3.1-.4,0,0,0-.1,0-.2v-.2c.3-.5.6-1,1-1.4.4-.4.8-.7,1.2-1,.4-.3.7-.4,1-.6,0,0,0,0,0,0,0-.1.1-.2.2-.4,0-.2.2-.4.3-.6,0-.2.2-.4.2-.6.2-.5.4-1.1.5-1.6,0,0,0,0,0,0,0,0,0,0,0,0h0c0-.3.1-.5.1-.8.1-.8.2-1.7.1-2.5,0-.3,0-.5,0-.7-.2,0-.4.2-.7.4-.4.2-.8.5-1.2.9-.4.4-.7.8-1,1.3v.2c-.1,0-.1.1-.2.2,0,.1,0,.3-.2.4-.1.3-.3.5-.4.7-.2.2-.3.4-.5.6-.2.2-.4.3-.6.4-.4.2-.8.3-1.1.4-.3,0-.4,0-.4,0,0,0,.2,0,.4,0,.3,0,.6-.2,1-.5.2-.1.4-.3.5-.4.2-.2.3-.4.5-.6.1-.2.2-.5.3-.7,0-.1,0-.3.1-.4,0,0,0-.1,0-.2v-.2c.3-.5.6-1.1,1-1.5.4-.4.8-.8,1.2-1,.4-.3.7-.5,1-.6,0,0,0,0,0,0-.1-1-.4-2-.6-2.8-.4-1.2-.8-2.2-1.2-2.9-.1-.2-.2-.4-.3-.6-2.8.7-6.3.8-10.8-.7,0,0-.2,0-.3,0,6.9,17.6,4.6,27.3,4.6,27.3,13,15,8,27,8,27,.6-5.6-.9-10.8-2.8-14.8,0,.6.1,1.3.1,2,0,.8-.1,1.7-.3,2.6,0,.2,0,.4-.1.6,0,0,0,0,0,.2.1.2.2.6.3,1,.1.4.2.9.2,1.5,0,.5-.1,1.1-.4,1.6v.2c-.1,0-.2.1-.2.2,0,.1-.1.2-.2.4-.1.2-.2.5-.3.7,0,.2,0,.5,0,.7,0,.2,0,.4,0,.6.1.4.3.7.4.9.1.2.3.3.3.3,0,0-.1,0-.3-.3-.2-.2-.4-.5-.5-.9,0-.2-.1-.4-.2-.7,0-.2,0-.5,0-.8,0-.3.1-.5.2-.8,0-.1.1-.3.2-.4,0,0,0-.1,0-.2v-.2c.2-.5.3-1,.3-1.5,0-.5-.1-.9-.3-1.3,0,0,0-.1,0-.2,0,.3-.2.6-.3.8,0,.2-.2.4-.3.6-.1.2-.2.4-.3.6-.2.4-.4.8-.6,1.2-.4.8-.7,1.6-.8,2.4-.2.8-.3,1.6-.2,2.3,0,0,0,.2,0,.3,0,0,0,.2,0,.3,0,.2,0,.4,0,.5,0,.2,0,.3,0,.5,0,0,0,.2,0,.2,0,0,0,0,0,.1,0,0,0,0,0,.1.2.6.4,1.2.7,1.7.2.5.5.9.8,1.2.2.3.4.6.6.7.1.2.2.2.2.2,0,0,0,0-.2-.2s-.4-.4-.6-.7c-.3-.3-.5-.7-.8-1.2-.3-.5-.5-1-.8-1.7,0,0,0,0,0-.1,0,0,0,0,0-.1,0,0,0-.2,0-.2,0-.2,0-.3-.1-.5,0-.2,0-.4,0-.5,0,0,0-.2,0-.3,0,0,0-.2,0-.3,0-.8,0-1.6.1-2.4.1-.8.4-1.7.7-2.5,0-.1,0-.2.1-.3-.2,0-.3.2-.5.3-.4.2-.8.5-1.2.9-.4.4-.7.8-.9,1.3v.2c-.1,0-.1.1-.1.2,0,.1,0,.3-.1.4-.1.3-.2.5-.4.7-.2.2-.3.4-.5.6-.2.2-.4.3-.6.4-.4.2-.8.4-1,.4-.3,0-.4,0-.4,0,0,0,.2,0,.4,0,.3,0,.6-.2,1-.5.2-.1.4-.3.6-.4.2-.2.3-.4.5-.6.1-.2.3-.5.3-.7,0-.1,0-.3.1-.4,0,0,0-.1,0-.2v-.2c.3-.5.6-1,1-1.4.4-.4.8-.7,1.2-1,.4-.3.7-.4,1-.6,0,0,0,0,0,0,0-.1.1-.2.2-.4,0-.2.2-.4.3-.6,0-.2.2-.4.2-.6.2-.5.4-1.1.5-1.6,0,0,0,0,0,0,0,0,0,0,0,0h0c0-.3.1-.5.1-.8.1-.8.2-1.7.1-2.5,0-.3,0-.5,0-.7-.2,0-.4.2-.7.4-.4.2-.8.5-1.2.9-.4.4-.7.8-1,1.3v.2c-.1,0-.1.1-.2.2,0,.1,0,.3-.2.4-.1.3-.3.5-.4.7-.2.2-.3.4-.5.6-.2.2-.4.3-.6.4-.4.2-.8.3-1.1.4-.3,0-.4,0-.4,0,0,0,.2,0,.4,0,.3,0,.6-.2,1-.5.2-.1.4-.3.5-.4.2-.2.3-.4.5-.6.1-.2.2-.5.3-.7,0-.1,0-.3.1-.4,0,0,0-.1,0-.2v-.2c.3-.5.6-1.1,1-1.5.4-.4.8-.8,1.2-1,.4-.3.7-.5,1-.6,0,0,0,0,0,0-.1-1-.4-2-.6-2.8-.3-.8-.6-1.5-.8-2.1-1.5-2.4-2.8-3.9-2.8-3.9.9,13.7-8.9,25.3-8.9,25.3,1.9,9.7-3.8,15.4-3.8,15.4,2.1-3.5.9-11.3.9-11.3-5.8,10.8-15.3,15.1-15.3,15.1,4.5-2.5,6.4-7.5,6.4-7.5-3.5,1.8-6.7,2.9-9.6,3.4l-2.5.4c-7.8.8-12.4-2.2-12.4-2.2,0,0,19.8,5.9,34-14.4,14.2-20.3,7.3-46.2,7.3-46.2-13,15.7-26.2,21.4-26.2,21.4.2,3.5,0,6.5-.4,9,0,.1.1.2.2.4.3.7.8,1.8,1.1,3.1.3,1.3.6,2.9.6,4.5,0,.8-.1,1.7-.3,2.6,0,.2,0,.4-.1.6,0,0,0,0,0,.2.1.2.2.6.3,1,.1.4.2.9.2,1.5,0,.5-.1,1.1-.4,1.6v.2c-.1,0-.2.1-.2.2,0,.1-.1.2-.2.4-.1.2-.2.5-.3.7,0,.2,0,.5,0,.7,0,.2,0,.4,0,.6.1.4.3.7.4.9.1.2.3.3.3.3,0,0-.1,0-.3-.3-.2-.2-.4-.5-.5-.9,0-.2-.1-.4-.2-.7,0-.2,0-.5,0-.8,0-.3.1-.5.2-.8,0-.1.1-.3.2-.4,0,0,0-.1,0-.2v-.2c.2-.5.3-1,.3-1.5,0-.5-.1-.9-.3-1.3,0,0,0-.1,0-.2,0,.3-.2.6-.3.8,0,.2-.2.4-.3.6-.1.2-.2.4-.3.6-.2.4-.4.8-.6,1.2-.4.8-.7,1.6-.8,2.4-.2.8-.3,1.6-.2,2.3,0,0,0,.2,0,.3,0,0,0,.2,0,.3,0,.2,0,.4,0,.5,0,.2,0,.3,0,.5,0,0,0,.2,0,.2,0,0,0,0,0,.1,0,0,0,0,0,.1.2.6.4,1.2.7,1.7.2.5.5.9.8,1.2.2.3.4.6.6.7.1.2.2.2.2.2,0,0,0,0-.2-.2-.2-.2-.4-.4-.6-.7-.3-.3-.5-.7-.8-1.2-.3-.5-.5-1-.8-1.7,0,0,0,0,0-.1,0,0,0,0,0-.1,0,0,0-.2,0-.2,0-.2,0-.3-.1-.5,0-.2,0-.4,0-.5,0,0,0-.2,0-.3,0,0,0-.2,0-.3,0-.8,0-1.6.1-2.4.1-.8.4-1.7.7-2.5,0-.1,0-.2.1-.3-.2,0-.3.2-.5.3-.4.2-.8.5-1.2.9-.4.4-.7.8-.9,1.3v.2c-.1,0-.1.1-.1.2,0,.1,0,.3-.1.4-.1.3-.2.5-.4.7-.2.2-.3.4-.5.6-.2.2-.4.3-.6.4-.4.2-.8.4-1,.4-.3,0-.4,0-.4,0,0,0,.2,0,.4,0,.3,0,.6-.2,1-.5.2-.1.4-.3.6-.4.2-.2.3-.4.5-.6.1-.2.3-.5.3-.7,0-.1,0-.3.1-.4,0,0,0-.1,0-.2v-.2c.3-.5.6-1,1-1.4.4-.4.8-.7,1.2-1,.4-.3.7-.4,1-.6,0,0,0,0,0,0,0-.1.1-.2.2-.4,0-.2.2-.4.3-.6,0-.2.2-.4.2-.6.2-.5.4-1.1.5-1.6,0,0,0,0,0,0,0,0,0,0,0,0h0c0-.3.1-.5.1-.8.1-.8.2-1.7.1-2.5,0-.3,0-.5,0-.7-.2,0-.4.2-.7.4-.4.2-.8.5-1.2.9-.4.4-.7.8-1,1.3v.2c-.1,0-.1.1-.2.2,0,.1,0,.3-.2.4-.1.3-.3.5-.4.7-.2.2-.3.4-.5.6-.2.2-.4.3-.6.4-.4.2-.8.3-1.1.4-.3,0-.4,0-.4,0,0,0,.2,0,.4,0,.3,0,.6-.2,1-.5.2-.1.4-.3.5-.4.2-.2.3-.4.5-.6.1-.2.2-.5.3-.7,0-.1,0-.3.1-.4,0,0,0-.1,0-.2v-.2c.3-.5.6-1.1,1-1.5.4-.4.8-.8,1.2-1,.4-.3.7-.5,1-.6,0,0,0,0,0,0-.1-1-.4-2-.6-2.8-.2-.6-.4-1.2-.6-1.7-2.4,8.9-8.4,10.5-8.4,10.5,8.8-7.6,7.7-21.1,7.7-21.1-5.6,3.6-11.2,5.7-15.7,7,0,0,0,0,0,0,0,0-.1.1-.2.2-.2.2-.4.4-.8.6-.7.5-1.7,1.2-3,2-1.3.7-2.9,1.5-4.7,2-.9.3-1.9.5-2.9.6-.2,0-.4,0-.7,0,0,0,0,0-.1.1-.2.2-.5.4-1,.6-.4.2-.9.5-1.5.6-.6.2-1.2.3-1.9.2h-.2c0,0-.2,0-.2,0-.2,0-.3,0-.5,0-.3,0-.6,0-.9,0-.3,0-.6,0-.8.2-.2,0-.5.2-.7.3-.4.2-.7.5-.8.7-.2.2-.2.3-.2.3,0,0,0-.1.2-.3.2-.2.4-.5.8-.7.2-.1.4-.2.7-.3.3-.1.5-.2.8-.2.3,0,.6,0,.9,0,.2,0,.3,0,.5,0,0,0,.2,0,.2,0h.2c.6,0,1.2-.2,1.7-.4.5-.2,1-.4,1.3-.7,0,0,.1,0,.2-.1-.3,0-.7,0-1,0-.3,0-.5,0-.8,0-.3,0-.5,0-.8,0-.5,0-1,0-1.5-.1-1,0-1.9,0-2.8.1-.9.1-1.8.3-2.6.6-.1,0-.2,0-.3.1,0,0-.2,0-.3.1-.2,0-.4.2-.5.2-.2,0-.3.2-.5.3,0,0-.2,0-.2.1,0,0,0,0-.1,0,0,0,0,0-.1,0-.6.4-1.1.7-1.6,1.1-.4.4-.8.7-1,1-.3.3-.5.6-.6.7-.1.2-.2.3-.2.3,0,0,0-.1.2-.3.1-.2.3-.4.5-.8.3-.3.6-.7,1-1.1.4-.4.9-.8,1.6-1.2,0,0,0,0,.1,0,0,0,0,0,.1,0,0,0,.2,0,.2-.1.2,0,.3-.2.5-.3.2,0,.4-.2.6-.3,0,0,.2,0,.3-.1,0,0,.2,0,.3-.1.8-.3,1.7-.6,2.6-.7.9-.2,1.9-.2,2.9-.2.1,0,.2,0,.4,0-.1-.1-.3-.2-.5-.3-.4-.2-.8-.5-1.4-.6-.5-.2-1.1-.3-1.8-.3h-.2c0,0-.2,0-.2,0-.2,0-.3,0-.5,0-.3,0-.6,0-.9,0-.3,0-.6-.1-.8-.2-.3,0-.5-.2-.7-.3-.4-.2-.6-.5-.8-.7-.2-.2-.2-.3-.2-.3,0,0,0,.1.2.3.2.2.4.4.8.7.2.1.4.2.7.3.2,0,.5.1.8.2.3,0,.6,0,.9,0,.1,0,.3,0,.5,0,0,0,.2,0,.2,0h.2c.6,0,1.3,0,1.9.3.6.2,1.1.4,1.5.6.4.2.7.4.9.6,0,0,0,0,0,0,.1,0,.3,0,.5,0,.2,0,.5,0,.7,0,.2,0,.5,0,.7,0,.7,0,1.3,0,1.9-.2,0,0,0,0,0,0,0,0,0,0,0,0h0c.3,0,.6,0,.9-.1.9-.2,1.8-.4,2.7-.7.3,0,.5-.2.8-.3-.2-.1-.4-.3-.6-.4-.4-.2-.8-.5-1.3-.7-.5-.2-1.1-.3-1.7-.3h-.2c0,0-.2,0-.2,0-.2,0-.3,0-.5,0-.3,0-.6,0-.9,0-.3,0-.6-.1-.8-.2-.3-.1-.5-.2-.7-.3-.4-.3-.6-.5-.8-.7-.2-.2-.2-.3-.2-.3,0,0,0,.1.2.3.2.2.4.4.8.6.2.1.4.2.7.3.2,0,.5.1.8.2.3,0,.6,0,.9,0,.1,0,.3,0,.5,0,0,0,.2,0,.2,0h.2c.7,0,1.3,0,1.9.2.6.2,1.1.4,1.5.6.4.2.7.4,1,.6,0,0,0,0,0,0,1.1-.5,2-1,2.8-1.5.7-.4,1.3-.8,1.8-1.2-4.9,1.1-8.1,1.2-8.1,1.2,14.4-2.1,33.3-14.9,33.3-14.9-11.1,4.3-17.2-1.5-17.2-1.5,18,8.4,36-13.8,36.8-16.4.7-2.1-1.4-6.6-2.1-7.9-12-2.7-20.2,2.2-20.2,2.2.9-30.2,31.2-35.8,39.6-36.8,1.6-.2,3.1-.8,4.3-1.7,5.5-4.5,6.5-9.2,5.6-13.3,0,0,0,0,0,0,.5,3.1-.2,5.7-1.6,5.9-1.4.2-2.9-2.2-3.4-5.3-.5-3.1.2-5.7,1.6-5.9.6,0,1.2.3,1.8,1.1-2.2-3.7-7.7-4.8-11.6-2.3-5.2,3.3-14.7,6.9-30.6,5.4-28.1-2.6-17.9,22.6-17.9,22.6-17,14.4-15.1,32.9-13.8,39.5.3.7.7,1.7,1,3,.3,1.3.6,2.9.6,4.5,0,.8-.1,1.7-.3,2.6,0,.2,0,.4-.1.6,0,0,0,0,0,.2.1.2.2.6.3,1,.1.4.2.9.2,1.5,0,.5-.1,1.1-.4,1.6v.2c-.1,0-.2.1-.2.2,0,.1-.1.2-.2.4-.1.2-.2.5-.3.7,0,.2,0,.5,0,.7,0,.2,0,.4,0,.6.1.4.3.7.4.9.1.2.3.3.3.3,0,0-.1,0-.3-.3-.2-.2-.4-.5-.5-.9,0-.2-.1-.4-.2-.7,0-.2,0-.5,0-.8,0-.3.1-.5.2-.8,0-.1.1-.3.2-.4,0,0,0-.1,0-.2v-.2c.2-.5.3-1,.3-1.5,0-.5-.1-.9-.3-1.3,0,0,0-.1,0-.2,0,.3-.2.6-.3.8,0,.2-.2.4-.3.6-.1.2-.2.4-.3.6-.2.4-.4.8-.6,1.2-.4.8-.7,1.6-.8,2.4-.2.8-.3,1.6-.2,2.3,0,0,0,.2,0,.3,0,0,0,.2,0,.3,0,.2,0,.4,0,.5,0,.2,0,.3,0,.5,0,0,0,.2,0,.2,0,0,0,0,0,.1,0,0,0,0,0,.1.2.6.4,1.2.7,1.7.2.5.5.9.8,1.2.2.3.4.6.6.7.1.2.2.2.2.2,0,0,0,0-.2-.2-.2-.2-.4-.4-.6-.7-.3-.3-.5-.7-.8-1.2-.3-.5-.5-1-.8-1.7,0,0,0,0,0-.1,0,0,0,0,0-.1,0,0,0-.2,0-.2,0-.2,0-.3-.1-.5,0-.2,0-.4,0-.5,0,0,0-.2,0-.3,0,0,0-.2,0-.3,0-.8,0-1.6.1-2.4.1-.8.4-1.7.7-2.5,0-.1,0-.2.1-.3-.2,0-.3.2-.5.3-.4.2-.8.5-1.2.9-.4.4-.7.8-.9,1.3v.2c-.1,0-.1.1-.1.2,0,.1,0,.3-.1.4-.1.3-.2.5-.4.7-.2.2-.3.4-.5.6-.2.2-.4.3-.6.4-.4.2-.8.4-1,.4-.3,0-.4,0-.4,0,0,0,.2,0,.4,0,.3,0,.6-.2,1-.5.2-.1.4-.3.6-.4.2-.2.3-.4.5-.6.1-.2.3-.5.3-.7,0-.1,0-.3.1-.4,0,0,0-.1,0-.2v-.2c.3-.5.6-1,1-1.4.4-.4.8-.7,1.2-1,.4-.3.7-.4,1-.6,0,0,0,0,0,0,0-.1.1-.2.2-.4,0-.2.2-.4.3-.6,0-.2.2-.4.2-.6.2-.5.4-1.1.5-1.6,0,0,0,0,0,0,0,0,0,0,0,0h0c0-.3.1-.5.1-.8.1-.8.2-1.7.1-2.5,0-.3,0-.5,0-.7-.2,0-.4.2-.7.4-.4.2-.8.5-1.2.9-.4.4-.7.8-1,1.3v.2c-.1,0-.1.1-.2.2,0,.1,0,.3-.2.4-.1.3-.3.5-.4.7-.2.2-.3.4-.5.6-.2.2-.4.3-.6.4-.4.2-.8.3-1.1.4-.3,0-.4,0-.4,0,0,0,.2,0,.4,0,.3,0,.6-.2,1-.5.2-.1.4-.3.5-.4.2-.2.3-.4.5-.6.1-.2.2-.5.3-.7,0-.1,0-.3.1-.4,0,0,0-.1,0-.2v-.2c.3-.5.6-1.1,1-1.5.4-.4.8-.8,1.2-1,.4-.3.7-.5,1-.6,0,0,0,0,0,0-.1-1-.4-2-.6-2.8,0-.2-.1-.4-.2-.6-22.6,2.4-39.8,23.9-39.8,23.9-1.2,26.8,25.7,43,45.4,51.3,9.7,4.1,21.4.9,26.4-7.4,7.6-12.2,13.1-.5,35.2-30.7,21.5-29.4,10.1-46.7,4.1-52.9Z"/>
    <path class="st4" d="M102.7,168.4c9-7.1,18.4-11.5,27.5-12.9-.5-2.4-1.1-6.4-.9-11.2-8.4-8.8-17-21.6-16.1-37.2.2-3.9-3.3-7.1-7.8-7.1h-.6c2.2.4,3.8,1.2,3.8,2,0,1.2-2.9,2.1-6.5,2.1s-6.5-1.1-6.4-2.3c0-.8,1.4-1.5,3.4-1.9h-.8c-4.1,0-7.5,2.8-7.8,6.4-.4,6.7-.4,17.1,3.3,22.2,5.8,7.9-3.5,24.8-3.5,24.8,0,0-7.4,15.5-.1,27.8v-.5s.5-.6.5-.6c.2-.2,4.7-5.8,12.1-11.7Z"/>
    <path class="st4" d="M115.9,107.2c-.8,13.7,6.3,25.2,13.2,33.1.3,0,.3,0,.6-.1,1.4-9.8,6.1-18.5,13.8-25.4-1.1-3.5-3.3-12.5,1.7-18.6,3.1-3.8,8.3-5.8,15.4-5.8s2.7,0,4.1.2c2.3.2,4.6.3,6.8.3,5.1,0,9.8-.6,14-1.8-1.4-5.8-5.8-11.8-16.7-15.3l1.3-13.9c0-.3,0-.5,0-.8-.6,1-3.2,1.7-6.4,1.7-3.6,0-6.5-1.1-6.4-2.3,0-.6.7-1.1,1.8-1.5-1.4,0-2.6.8-2.9,2l-3.9,14s-5.1,1.6-6.5,5.6l-8.4-17.6c-.7-1.4-2.6-2.1-4.2-1.5,1.3-.2,2.3-.1,2.6.4.5.8-1.1,2.3-3.5,3.4-2.4,1.1-4.8,1.2-5.2.4-.2-.3,0-.8.4-1.3-.8.7-1.2,1.6-1,2.6l5.1,21.5s-3.6,2.2-3.6,4.5l-8.5-14.3c-1.6-2.7-6.2-2.1-6.8.9l-1.2,6.3s-1.1,7.2-1.2,14.8c1,.5,1.9,1.1,2.7,1.8,2,1.8,3,4.2,2.9,6.7Z"/>
    <path class="st5" d="M91.5,129.8c-2-2.7-3-6.6-3.5-10.8-4.5.9-9,2-12.6,3.2-2.3.8-4,2.5-4.4,4.6.2-.3.4-.4.7-.5,1.3-.3,3.1,2.2,4,5.6.8,3.1.5,5.8-.5,6.4,1.5.5,3.1.7,4.8.2,3.9-1,8.6-2,13.1-2.3.1-2.5-.2-4.8-1.5-6.5Z"/>
  </g>
</svg>