<?xml version="1.0" encoding="UTF-8"?>
<svg id="Layer_1" xmlns="http://www.w3.org/2000/svg" version="1.1" viewBox="0 0 182 182">
  <!-- Generator: Adobe Illustrator 29.1.0, SVG Export Plug-In . SVG Version: 2.1.0 Build 142)  -->
  <defs>
    <style>
      .st0 {
        fill: #e61e24;
      }
    </style>
  </defs>
  <path class="st0" d="M134.4,23.9c13.9,4.7,24.3,17.4,25.7,32.8,1.5,16.7,1.1,34.4.5,51.1-.3,8.5.2,18.3-2.4,26.4-1.7,5.2-6.8,13.6-11.7,17.4-5.7,4.3-14.6,8-21.7,8.6-16.5,1.4-34.2,1.1-50.7.5-8.3-.3-18.6,0-26.4-2.4-.4-.1-.3-.8-.7-.9-8-1.8-16.2-8.7-20.4-16.3-4.8-8.8-4.3-14.6-4.9-24.7-1-17.9-1-33.7,0-51.6.2-3.1-.3-6.5,0-9.5.9-7.7,7.1-19.9,13.6-24.9,3.1-2.4,9.2-5.6,12.3-6.6,8.5-2.7,17.6-1.7,26.4-1.9,16.9-.5,37-1.5,53.6.9,2.6.4,3.9.2,6.7,1.2h0ZM138.2,40c-4.5-3.4-8-4-13.3-5-19.8-3.5-44.5.7-65-.9-14.8,2.4-22.2,8.1-24.9,23-3.5,19.8.7,44.5-.9,65,2.5,14.9,8,22.2,23,24.9,19.8,3.5,44.5-.7,65,.9,15.2-1.7,24-10.7,25.8-25.8-1.7-20.5,2.6-45.2-.9-65-1.2-7.1-2.8-12.6-8.8-17.1Z"/>
  <path class="st0" d="M126.8,91c0,19.8-16.1,35.8-35.8,35.8s-35.8-16-35.8-35.8,16.1-35.8,35.8-35.8,35.8,16,35.8,35.8ZM114.2,91c0-12.8-10.4-23.3-23.3-23.3s-23.3,10.4-23.3,23.3,10.4,23.3,23.3,23.3,23.3-10.4,23.3-23.3Z"/>
  <circle class="st0" cx="128.3" cy="53.7" r="8.4"/>
</svg>