<?xml version="1.0" encoding="UTF-8"?>
<svg id="Layer_1" data-name="Layer 1" xmlns="http://www.w3.org/2000/svg" viewBox="0 0 182 182">
  <defs>
    <style>
      .cls-1 {
        fill: #e61e24;
      }
    </style>
  </defs>
  <path d="M182,0v182H0V0h182ZM134.44,23.88c-2.76-.93-4.03-.79-6.66-1.17-16.57-2.43-36.71-1.33-53.58-.88-8.8.23-17.96-.75-26.43,1.92-3.11.98-9.21,4.23-12.32,6.62-6.48,4.97-12.75,17.2-13.61,24.89-.34,3.02.16,6.4-.02,9.46-1.04,17.93-1.03,33.7,0,51.62.58,10.13.1,15.94,4.88,24.74,4.12,7.59,12.36,14.53,20.37,16.28.34.07.26.77.68.9,7.82,2.44,18.12,2.07,26.44,2.39,16.54.63,34.16.89,50.69-.46,7.05-.57,16.01-4.21,21.67-8.56,4.94-3.79,10.01-12.21,11.7-17.41,2.63-8.1,2.09-17.89,2.4-26.42.6-16.69.95-34.44-.51-51.11-1.35-15.41-11.85-28.15-25.7-32.82Z"/>
  <path class="cls-1" d="M134.44,23.88c13.85,4.67,24.34,17.41,25.7,32.82,1.46,16.67,1.11,34.42.51,51.11-.31,8.53.24,18.33-2.4,26.42-1.69,5.2-6.76,13.62-11.7,17.41-5.66,4.34-14.62,7.98-21.67,8.56-16.53,1.35-34.15,1.09-50.69.46-8.32-.32-18.62.05-26.44-2.39-.43-.13-.35-.83-.68-.9-8.01-1.76-16.25-8.7-20.37-16.28-4.78-8.8-4.3-14.61-4.88-24.74-1.03-17.92-1.04-33.69,0-51.62.18-3.06-.32-6.45.02-9.46.86-7.7,7.12-19.92,13.61-24.89,3.11-2.39,9.21-5.64,12.32-6.62,8.46-2.67,17.63-1.69,26.43-1.92,16.87-.45,37.02-1.55,53.58.88,2.63.39,3.91.24,6.66,1.17ZM138.2,40.02c-4.51-3.42-7.97-4.03-13.29-4.97-19.8-3.51-44.49.72-64.97-.94-14.83,2.37-22.25,8.08-24.89,22.98-3.51,19.8.72,44.48-.94,64.97,2.48,14.95,7.95,22.22,22.98,24.89,19.8,3.51,44.49-.72,64.97.94,15.19-1.66,23.99-10.71,25.83-25.83-1.66-20.48,2.57-45.17-.94-64.97-1.25-7.07-2.81-12.56-8.75-17.07Z"/>
  <path d="M138.2,40.02c5.94,4.51,7.5,9.99,8.75,17.07,3.51,19.8-.72,44.48.94,64.97-1.84,15.12-10.64,24.17-25.83,25.83-20.48-1.66-45.17,2.57-64.97-.94-15.03-2.67-20.5-9.94-22.98-24.89,1.66-20.48-2.57-45.17.94-64.97,2.64-14.9,10.06-20.61,24.89-22.98,20.48,1.66,45.17-2.57,64.97.94,5.32.94,8.77,1.55,13.29,4.97ZM136.68,53.72c0-4.64-3.76-8.39-8.39-8.39s-8.39,3.76-8.39,8.39,3.76,8.39,8.39,8.39,8.39-3.76,8.39-8.39ZM126.83,91c0-19.8-16.05-35.85-35.85-35.85s-35.85,16.05-35.85,35.85,16.05,35.85,35.85,35.85,35.85-16.05,35.85-35.85Z"/>
  <path class="cls-1" d="M126.83,91c0,19.8-16.05,35.85-35.85,35.85s-35.85-16.05-35.85-35.85,16.05-35.85,35.85-35.85,35.85,16.05,35.85,35.85ZM114.25,91.01c0-12.85-10.42-23.27-23.27-23.27s-23.27,10.42-23.27,23.27,10.42,23.27,23.27,23.27,23.27-10.42,23.27-23.27Z"/>
  <circle class="cls-1" cx="128.29" cy="53.72" r="8.39"/>
  <circle cx="90.98" cy="91.01" r="23.27"/>
</svg>