<?xml version="1.0" encoding="UTF-8"?>
<svg id="Layer_1" data-name="Layer 1" xmlns="http://www.w3.org/2000/svg" viewBox="0 0 149.07 145.72">
  <defs>
    <style>
      .cls-1 {
        fill: #eb1d24;
      }
    </style>
  </defs>
  <path d="M13.8-3.35c.43.46,1.77.46,2.21,0h117.05c.43.46,1.77.46,2.21,0h13.8v13.8c-.46.43-.46,1.77,0,2.21v117.05c-.47.52-.47,1.96,0,2.48v13.53h-13.8c-.43-.46-1.77-.46-2.21,0H15.46c-.27-.44-1.37-.45-1.66,0H0v-13.8c.46-.43.46-1.77,0-2.21V12.66c.46-.43.46-1.77,0-2.21V-3.35h13.8ZM11.32-2.52c-.51-.04-1.21-.08-1.38.55l1.38-.28v-.27ZM147,5.21c-.27.19.15.38.28.54.27-.18-.13-.37-.28-.54ZM147.96,7.14c.07-.51,0-.96-.55-1.1-.07.51,0,.96.55,1.1ZM148.24,7.96v-.55h-.27v.55h.27ZM44.07,17.73c-3.22-1.84-7.11-2.23-10.4-1.08-.47.16-3.73,1.56-3.88,1.71-.38.36-2.98,4.7-3.2,5.29-4.57,12.51,12.84,21.55,20.42,10.74,3.53-5.02,2.38-13.63-2.94-16.66ZM79.5,56.83v-8.83h-19.32v63.91s.64.69.69.69h19.19v-34.09c.7-8.97,3.85-15.54,13.96-14.51,1.98.2,5.27,1.73,6.4,3.41.68,1,2.28,6.62,2.28,7.79v37.41h19.19c.15,0,.82-.34.71-.68-.33-15.52.62-31.2-.58-46.61-1.44-5.51-3.51-11.78-8.85-15.21-9.84-6.31-25.48-4.46-32.44,5.19-.38.53-.4,1.71-1.22,1.54ZM47.48,48.27h-19.88v64.04c.27-.09.6.28.69.28h19.19V48.27ZM8.97,143.78v.28l.14-.14-.14-.14ZM10.49,144.34l-1.1-.28c-.08.4.68.47,1.1.55v-.27ZM11.32,144.61h-.55v.27h.55v-.27Z"/>
  <path class="cls-1" d="M149.07,132.19c-.47-.52-.47-1.96,0-2.48v2.48Z"/>
  <path class="cls-1" d="M0,12.66v-2.21c.46.44.46,1.78,0,2.21Z"/>
  <path class="cls-1" d="M149.07,12.66c-.46-.44-.46-1.78,0-2.21v2.21Z"/>
  <path class="cls-1" d="M0,131.91v-2.21c.46.44.46,1.78,0,2.21Z"/>
  <path class="cls-1" d="M135.27,145.72h-2.21c.44-.46,1.78-.46,2.21,0Z"/>
  <path class="cls-1" d="M15.46,145.72h-1.66c.29-.45,1.39-.44,1.66,0Z"/>
  <path class="cls-1" d="M79.5,56.83c.82.17.84-1.02,1.22-1.54,6.95-9.65,22.6-11.5,32.44-5.19,5.34,3.43,7.41,9.7,8.85,15.21,1.2,15.41.25,31.09.58,46.61.11.35-.56.68-.71.68h-19.19v-37.41c0-1.17-1.6-6.79-2.28-7.79-1.14-1.67-4.42-3.2-6.4-3.41-10.11-1.03-13.26,5.55-13.95,14.51v34.09h-19.19s-.69-.64-.69-.69v-63.91h19.32v8.83Z"/>
  <path class="cls-1" d="M47.48,48.27v64.32h-19.19c-.09,0-.42-.36-.69-.28V48.27h19.88Z"/>
  <path class="cls-1" d="M44.07,17.73c5.32,3.04,6.47,11.64,2.94,16.66-7.58,10.81-24.99,1.77-20.42-10.74.22-.59,2.81-4.93,3.2-5.29.15-.15,3.41-1.54,3.88-1.71,3.29-1.15,7.18-.76,10.4,1.08Z"/>
  <path class="cls-1" d="M147.96,7.14c-.55-.15-.62-.59-.55-1.1.55.15.62.59.55,1.1Z"/>
  <rect class="cls-1" x="147.97" y="7.41" width=".27" height=".55"/>
  <path class="cls-1" d="M10.49,144.34v.27c-.42-.07-1.18-.15-1.1-.55l1.1.28Z"/>
  <rect class="cls-1" x="10.77" y="144.61" width=".55" height=".27"/>
  <path class="cls-1" d="M147,5.21c.15.17.55.36.28.54-.13-.16-.55-.35-.28-.54Z"/>
  <polygon class="cls-1" points="8.97 143.78 9.11 143.92 8.97 144.06 8.97 143.78"/>
</svg>